<svg width="20" height="18" viewBox="0 0 20 18" fill="none" xmlns="http://www.w3.org/2000/svg">
<path fill-rule="evenodd" clip-rule="evenodd" d="M1.11978 0.178574C0.777476 0.178574 0.5 0.467562 0.5 0.824045C0.5 1.18053 0.777476 1.46952 1.11978 1.46952H3.50852L5.63901 11.9382C5.7233 12.3323 5.9713 12.6603 6.28462 12.6577H16.6143C16.9417 12.6624 17.2429 12.3533 17.2429 12.0122C17.2429 11.6712 16.9417 11.3619 16.6143 11.3667H6.78819L6.52348 10.0758H17.4407C17.7182 10.0736 17.9803 9.85352 18.0411 9.57153L19.4872 3.11681C19.5678 2.74221 19.2554 2.3329 18.8868 2.33015H4.95467L4.61896 0.689572C4.5603 0.402961 4.29347 0.178273 4.01209 0.178574H1.11978ZM5.21289 3.62109H18.1056L16.95 8.78485H6.26522L5.21289 3.62109ZM8.55711 13.5183C7.42347 13.5183 6.49118 14.4892 6.49118 15.6698C6.49118 16.8505 7.42347 17.8214 8.55711 17.8214C9.69075 17.8214 10.623 16.8505 10.623 15.6698C10.623 14.4892 9.69075 13.5183 8.55711 13.5183ZM14.3419 13.5183C13.2082 13.5183 12.2759 14.4892 12.2759 15.6698C12.2759 16.8505 13.2082 17.8214 14.3419 17.8214C15.4755 17.8214 16.4078 16.8505 16.4078 15.6698C16.4078 14.4892 15.4755 13.5183 14.3419 13.5183ZM8.55707 14.8092C9.02081 14.8092 9.38344 15.1869 9.38344 15.6699C9.38344 16.1528 9.02081 16.5305 8.55707 16.5305C8.09337 16.5305 7.7307 16.1528 7.7307 15.6699C7.7307 15.1869 8.09337 14.8092 8.55707 14.8092ZM14.3418 14.8092C14.8056 14.8092 15.1682 15.1869 15.1682 15.6699C15.1682 16.1528 14.8056 16.5305 14.3418 16.5305C13.8781 16.5305 13.5155 16.1528 13.5155 15.6699C13.5155 15.1869 13.8781 14.8092 14.3418 14.8092Z" fill="white"/>
</svg>
