<svg width="23" height="13" viewBox="0 0 23 13" fill="none" xmlns="http://www.w3.org/2000/svg">
<path d="M14.0146 10.6779V1.29501C14.0146 1.01313 13.7822 0.782471 13.4983 0.782471H0.516298C0.232341 0.782471 0 1.01311 0 1.29501V10.6779C0 10.9599 0.232341 11.1905 0.516298 11.1905H1.20607C1.20607 9.97354 2.20336 8.98347 3.42919 8.98347C4.65502 8.98347 5.6523 9.97355 5.6523 11.1905H5.97274H13.4983C13.7822 11.1905 14.0146 10.9599 14.0146 10.6779Z" fill="url(#paint0_linear)"/>
<path d="M1.82561 11.1905C1.82561 10.3113 2.54355 9.59856 3.42917 9.59856C4.31481 9.59856 5.03275 10.3113 5.03275 11.1905C5.03275 12.0697 4.31481 12.7825 3.42917 12.7825C2.54355 12.7825 1.82561 12.0697 1.82561 11.1905Z" fill="url(#paint1_linear)"/>
<path d="M23 10.6779V7.65605C23 7.37415 22.8348 6.98137 22.6329 6.78314L19.083 3.29871C18.881 3.10054 18.4835 2.93836 18.1995 2.93836H15.204C14.92 2.93836 14.6877 3.169 14.6877 3.45092V10.6779C14.6877 10.9599 14.92 11.1905 15.204 11.1905H15.8571C15.8571 9.97354 16.8544 8.98347 18.0802 8.98347C19.306 8.98347 20.3033 9.97355 20.3033 11.1905H20.7262H22.4837C22.7677 11.1905 23 10.9599 23 10.6779Z" fill="url(#paint2_linear)"/>
<path d="M16.4766 11.1905C16.4766 10.3113 17.1946 9.59856 18.0802 9.59856C18.9658 9.59856 19.6838 10.3113 19.6838 11.1905C19.6838 12.0697 18.9658 12.7825 18.0802 12.7825C17.1946 12.7825 16.4766 12.0697 16.4766 11.1905Z" fill="url(#paint3_linear)"/>
<defs>
<linearGradient id="paint0_linear" x1="2.42778" y1="1.6731" x2="17.7802" y2="16.4695" gradientUnits="userSpaceOnUse">
<stop stop-color="#333333"/>
<stop offset="1" stop-color="#1E1E1E"/>
</linearGradient>
<linearGradient id="paint1_linear" x1="2.42778" y1="1.6731" x2="17.7802" y2="16.4695" gradientUnits="userSpaceOnUse">
<stop stop-color="#333333"/>
<stop offset="1" stop-color="#1E1E1E"/>
</linearGradient>
<linearGradient id="paint2_linear" x1="2.42778" y1="1.6731" x2="17.7802" y2="16.4695" gradientUnits="userSpaceOnUse">
<stop stop-color="#333333"/>
<stop offset="1" stop-color="#1E1E1E"/>
</linearGradient>
<linearGradient id="paint3_linear" x1="2.42778" y1="1.6731" x2="17.7802" y2="16.4695" gradientUnits="userSpaceOnUse">
<stop stop-color="#333333"/>
<stop offset="1" stop-color="#1E1E1E"/>
</linearGradient>
</defs>
</svg>
